<svg xmlns="http://www.w3.org/2000/svg" viewBox="0 0 192 180.53901"><title>dragon</title><path d="M124.10622,153.55282q1.46228,4.28577,2.92456,8.5715l2.92456,8.55307,5.95959-6.80566q2.07843-2.382,4.15686-4.764a9.27913,9.27913,0,0,1,4.69043,2.31763c1.86865,1.8042,2.12195,3.85187,3.45789,8.92087,1.53967,5.842,2.33252,8.76611,3.458,8.921,1.23279.16962,2.82068-2.37619,5.99634-7.4678,1.71106-2.74335,2.38757-4.15955,4.19385-5.20541a9.042,9.042,0,0,1,5.02148-1.04846c6.18359.1131,21.771-11.33014,23.58057-28.28937,1.0658-9.98932-2.44531-23.79712-10.92578-27.27765-7.29395-2.99353-16.13391,2.52655-18.85352-1.37952-1.15186-1.65442-.30359-3.704,0-5.5181C162.84328,90.22057,139.09939,80.365,119.78371,54.632c-3.12-4.15656-3.3938-5.08954-8.09326-11.2937A183.36118,183.36118,0,0,0,91.7886,20.32791a114.96363,114.96363,0,0,0-21.171-15.67128c-.00012,0-2.40344-1.32024-9.95093-3.21887a6.10271,6.10271,0,0,0-2.44641-.09206c-.62109.104-1.66162.27832-2.08252,1.00153a2.69672,2.69672,0,0,0,.28,2.38293c3.27966,6.80219,7.3573,9.82219,7.35742,9.82225,4.45349,3.29834,9.25964,10.16331,18.87183,23.89326,3.89673,5.566,8.17773,12.33786,6.29065,14.5126-.77856.89722-3.014,1.48117-4.433,1.66229a10.24441,10.24441,0,0,1-3.05322-.06207c-2.499-.4458-3.71545-1.71191-6.03308-3.16376C74.745,50.97292,73.032,50.2,69.60586,48.65411,66.01723,47.03488,60.41042,44.52,52.8677,41.84847c-1.80945-.6409-3.604-1.27649-6.08826-2.04169a100.19527,100.19527,0,0,0-15.5426-3.73395c-5.22681-.77023-9.48694-.66064-18.00732-.44144-.00012,0-3.64673.09381-10.35559,2.92465-.46814.19754-1.46436.64258-1.52673,1.34268-.06348.71271.87109,1.3504,1.48987,1.729,2.85156,1.74463,4.27734,2.61694,7.74377,2.86942,6.66089.48511,18.76453,6.84213,26.1925,12.50763C46.39089,64.34033,48.0403,70.4175,51.617,74.69943a.87546.87546,0,0,1,.2207.47824c.06628.72226-1.02307,1.24847-2.09229,2.136-1.35425,1.12415-1.20972,1.61075-1.95435,2.14981-1.75818,1.27289-4.31775-.17059-8.57129-1.3244-.83508-.2265.26538.10086-6.916-1.25076-4.44958-.83746-9.71338-1.87436-15.41394-2.40955a23.8271,23.8271,0,0,0-6.69519.84613,4.34529,4.34529,0,0,0-2.13367,1.17722,1.70288,1.70288,0,0,0-.62952,1.31641c.0603.37637.347.62186.7583.96439a4.17546,4.17546,0,0,0,1.30591.82773c1.39758.57794,8.196,5.33707,13.85364,11.00372,1.31787,1.32,3.392,3.5087,5.58838,5.82639.944.99612,1.416,1.4942,1.50549,1.59869,1.25171,1.46121,1.476,2.09143,2.48584,2.687.63452.37424.87207.31772,1.04846.62543.45752.798-.62354,2.0787-1.453,3.34753-1.23486,1.88879-2.25793,5.29352-4.3042,12.103-.02954.09817-.04431.14728-.05505.184-.73108,2.48785-.66895,4.02585-1.06689,4.04648-.01135.00058-.00989-.00073-.01843,0-.54883.04742-.53467,5.0304-.53333,5.49979.00488,1.73392.02649,9.343,3.77063,14.25507,4.81909,6.32245,14.37341,6.29785,17.198,6.29059,9.954-.02563,21.99988-5.32428,29.28271-5.886.22559-.0174.2699-.01663,1.36108-.09195,7.20044-.49707,8.17261-.7312,9.10486.03671.35413.29169.19434.30939,1.67371,3.934.05786.14178.90942,2.22464,1.674,3.92007,1.68994,3.74777,2.53491,5.62167,3.40283,5.66528,1.11987.05627,2.19629-1.89252,4.04651-5.24225,1.25537-2.27274,1.91772-3.98639,3.127-4.04651a8.82326,8.82326,0,0,1,1.94275.56555c1.66882.51953,1.75171.50717,1.95679.59326,1.61157.67651,1.74158,3.64139,2.28076,6.98953.72644,4.51022,1.17957,7.32413,2.483,7.67011,1.42615.37854,3.57507-2.27545,6.05164-5.33417,1.7616-2.17566,3.094-4.29041,4.65344-4.10175a6.97483,6.97483,0,0,1,1.76587.64383A9.01643,9.01643,0,0,1,124.10622,153.55282ZM88.03633,123.093a19.48025,19.48025,0,0,1-7.68852-1.58182,20.34814,20.34814,0,0,1-12.195-18.68786v-.07365A19.88869,19.88869,0,1,1,88.03633,123.093Zm54.721-17.2531a8.27713,8.27713,0,1,1,8.27713-8.27713A8.27782,8.27782,0,0,1,142.75732,105.83991Zm27.59042,19.66266c-3.67872,0-6.65848,3.80749-6.65848.12877a6.6585,6.6585,0,1,1,13.317,0C177.00622,129.31006,174.02646,125.50257,170.34774,125.50257Z" style="fill:#fff"/></svg>